<svg width="48" height="48" viewBox="0 0 48 48" fill="none" xmlns="http://www.w3.org/2000/svg">
<rect width="48" height="48" rx="24" fill="#DEF6ED"/>
<path d="M24.0002 28C18.2402 28 17.2198 22.2595 17.0391 17.7065C16.9888 16.44 16.9636 15.8067 17.4394 15.2208C17.9151 14.6349 18.4844 14.5389 19.6232 14.3467C20.7472 14.1571 22.2166 14 24.0002 14C25.7837 14 27.2531 14.1571 28.3771 14.3467C29.5159 14.5389 30.0852 14.6349 30.5609 15.2208C31.0367 15.8067 31.0115 16.44 30.9612 17.7065C30.7805 22.2595 29.7601 28 24.0002 28Z" stroke="#4FB58B" stroke-width="1.5"/>
<path d="M24 28V31" stroke="#4FB58B" stroke-width="1.5" stroke-linecap="round"/>
<path d="M27.5 34H20.5L20.8392 32.3039C20.9327 31.8365 21.3431 31.5 21.8198 31.5H26.1802C26.6569 31.5 27.0673 31.8365 27.1608 32.3039L27.5 34Z" stroke="#4FB58B" stroke-width="1.5" stroke-linecap="round" stroke-linejoin="round"/>
<path d="M31 17L31.9486 17.3162C32.9387 17.6462 33.4337 17.8112 33.7168 18.2041C34 18.5969 34 19.1187 33.9999 20.1623L33.9999 20.2349C33.9999 21.0956 33.9999 21.526 33.7927 21.8781C33.5855 22.2302 33.2093 22.4392 32.4569 22.8572L29.5 24.5" stroke="#4FB58B" stroke-width="1.5"/>
<path d="M16.9999 17L16.0513 17.3162C15.0613 17.6462 14.5662 17.8112 14.2831 18.2041C14 18.5969 14 19.1187 14 20.1623L14 20.2349C14 21.0956 14 21.526 14.2072 21.8781C14.4144 22.2302 14.7906 22.4392 15.543 22.8572L18.4999 24.5" stroke="#4FB58B" stroke-width="1.5"/>
<path d="M23.1459 18.0225C23.5259 17.3408 23.7159 17 24 17C24.2841 17 24.4741 17.3408 24.8541 18.0225L24.9524 18.1989C25.0603 18.3926 25.1143 18.4894 25.1985 18.5533C25.2827 18.6172 25.3875 18.641 25.5972 18.6884L25.7881 18.7316C26.526 18.8986 26.895 18.982 26.9828 19.2643C27.0706 19.5466 26.819 19.8407 26.316 20.429L26.1858 20.5812C26.0429 20.7483 25.9714 20.8319 25.9392 20.9353C25.9071 21.0387 25.9179 21.1502 25.9395 21.3733L25.9592 21.5763C26.0352 22.3612 26.0733 22.7536 25.8435 22.9281C25.6136 23.1025 25.2682 22.9435 24.5773 22.6254L24.3986 22.5431C24.2022 22.4527 24.1041 22.4075 24 22.4075C23.8959 22.4075 23.7978 22.4527 23.6014 22.5431L23.4227 22.6254C22.7318 22.9435 22.3864 23.1025 22.1565 22.9281C21.9267 22.7536 21.9648 22.3612 22.0408 21.5763L22.0605 21.3733C22.0821 21.1502 22.0929 21.0387 22.0608 20.9353C22.0286 20.8319 21.9571 20.7483 21.8142 20.5812L21.684 20.429C21.181 19.8407 20.9294 19.5466 21.0172 19.2643C21.105 18.982 21.474 18.8986 22.2119 18.7316L22.4028 18.6884C22.6125 18.641 22.7173 18.6172 22.8015 18.5533C22.8857 18.4894 22.9397 18.3926 23.0476 18.1989L23.1459 18.0225Z" stroke="#4FB58B" stroke-width="1.5"/>
<path d="M30 34H18" stroke="#4FB58B" stroke-width="1.5" stroke-linecap="round"/>
</svg>
