<svg width="48" height="48" viewBox="0 0 48 48" fill="none" xmlns="http://www.w3.org/2000/svg">
<rect width="48" height="48" rx="24" fill="#DEF6ED"/>
<path d="M18.2221 16.601C18.6667 16.304 19.1334 16.0464 19.6171 15.8298C20.989 15.2154 21.6749 14.9082 22.5875 15.4994C23.5 16.0906 23.5 17.0604 23.5 19V20.5C23.5 22.3856 23.5 23.3284 24.0858 23.9142C24.6716 24.5 25.6144 24.5 27.5 24.5H29C30.9396 24.5 31.9094 24.5 32.5006 25.4125C33.0918 26.3251 32.7846 27.011 32.1702 28.3829C31.9536 28.8666 31.696 29.3334 31.399 29.7779C30.3551 31.3402 28.8714 32.5578 27.1355 33.2769C25.3996 33.9959 23.4895 34.184 21.6466 33.8175C19.8038 33.4509 18.1111 32.5461 16.7825 31.2175C15.4539 29.8889 14.5491 28.1962 14.1825 26.3534C13.816 24.5105 14.0041 22.6004 14.7231 20.8645C15.4422 19.1286 16.6598 17.6449 18.2221 16.601Z" stroke="#4FB58B" stroke-width="1.5"/>
<path d="M33.446 19.069C32.6342 17.0083 30.9917 15.3658 28.931 14.554C27.3895 13.9467 26 15.3432 26 17V21C26 21.5523 26.4477 22 27 22H31C32.6569 22 34.0533 20.6106 33.446 19.069Z" stroke="#4FB58B" stroke-width="1.5"/>
</svg>
