<svg width="48" height="48" viewBox="0 0 48 48" fill="none" xmlns="http://www.w3.org/2000/svg">
<rect width="48" height="48" rx="24" fill="#DEF6ED"/>
<path d="M34 24C34 25.3132 33.7413 26.6136 33.2388 27.8268C32.7362 29.0401 31.9997 30.1425 31.0711 31.0711C30.1425 31.9997 29.0401 32.7362 27.8268 33.2388C26.6136 33.7413 25.3132 34 24 34C22.6868 34 21.3864 33.7413 20.1732 33.2388C18.9599 32.7362 17.8575 31.9997 16.9289 31.0711C16.0003 30.1425 15.2638 29.0401 14.7612 27.8268C14.2587 26.6136 14 25.3132 14 24C14 22.6868 14.2587 21.3864 14.7612 20.1732C15.2638 18.9599 16.0003 17.8575 16.9289 16.9289C17.8575 16.0003 18.9599 15.2638 20.1732 14.7612C21.3864 14.2587 22.6868 14 24 14C25.3132 14 26.6136 14.2587 27.8268 14.7612C29.0401 15.2638 30.1425 16.0003 31.0711 16.9289C31.9997 17.8575 32.7362 18.9599 33.2388 20.1732C33.7413 21.3864 34 22.6868 34 24L34 24Z" stroke="#4FB58B" stroke-width="1.5"/>
<path d="M28 24C28 25.3132 27.8965 26.6136 27.6955 27.8268C27.4945 29.0401 27.1999 30.1425 26.8284 31.0711C26.457 31.9997 26.016 32.7362 25.5307 33.2388C25.0454 33.7413 24.5253 34 24 34C23.4747 34 22.9546 33.7413 22.4693 33.2388C21.984 32.7362 21.543 31.9997 21.1716 31.0711C20.8001 30.1425 20.5055 29.0401 20.3045 27.8268C20.1035 26.6136 20 25.3132 20 24C20 22.6868 20.1035 21.3864 20.3045 20.1732C20.5055 18.9599 20.8001 17.8575 21.1716 16.9289C21.543 16.0003 21.984 15.2638 22.4693 14.7612C22.9546 14.2587 23.4747 14 24 14C24.5253 14 25.0454 14.2587 25.5307 14.7612C26.016 15.2638 26.457 16.0003 26.8284 16.9289C27.1999 17.8575 27.4945 18.9599 27.6955 20.1732C27.8965 21.3864 28 22.6868 28 24L28 24Z" stroke="#4FB58B" stroke-width="1.5"/>
<path d="M14 24H34" stroke="#4FB58B" stroke-width="1.5" stroke-linecap="round"/>
</svg>
