<svg width="48" height="48" viewBox="0 0 48 48" fill="none" xmlns="http://www.w3.org/2000/svg">
<rect width="48" height="48" rx="24" fill="#DEF6ED"/>
<path d="M34 17.3652L34.75 17.3652V17.3652H34ZM21.4545 25.3029L21.9837 24.7714L21.4545 25.3029ZM21.4545 20.5438L21.9837 21.0752L21.4545 20.5438ZM27.4286 26.4926L26.8994 25.9612L27.4286 26.4926ZM22.6493 26.4926L22.1201 27.0241L22.6493 26.4926ZM32.5153 21.4273L33.0445 21.9588L32.5153 21.4273ZM34 17.858L33.25 17.858V17.858H34ZM26.5412 15.4785L26.012 14.947V14.947L26.5412 15.4785ZM24.3733 24.6445C24.6669 24.3523 24.6679 23.8774 24.3756 23.5839C24.0833 23.2904 23.6084 23.2894 23.3149 23.5816L24.3733 24.6445ZM19.7089 22.282L20.2389 21.7514L20.2381 21.7506L19.7089 22.282ZM23.4377 18.7942C23.7861 19.0182 24.2502 18.9173 24.4741 18.5689C24.6981 18.2204 24.5972 17.7564 24.2488 17.5324L23.4377 18.7942ZM23.2958 17.8114L22.8903 18.4423V18.4423L23.2958 17.8114ZM21.0603 16.6657L21.1698 15.9238L21.0603 16.6657ZM16.796 19.2338L17.3252 19.7653L16.796 19.2338ZM19.5054 16.8642L19.7925 17.5571L19.5054 16.8642ZM17.3511 20.4527L17.6271 19.7554L17.6271 19.7554L17.3511 20.4527ZM17.4583 20.4956L17.1729 21.1892L17.4583 20.4956ZM18.8731 21.4497L19.4023 20.9183L18.8731 21.4497ZM18.7911 21.3687L18.2692 21.9072L18.7911 21.3687ZM17.0216 20.3224L16.7456 21.0197L16.7456 21.0197L17.0216 20.3224ZM25.7351 28.3374L25.2051 28.8681C25.2167 28.8797 25.2286 28.8909 25.241 28.9017L25.7351 28.3374ZM30.4484 23.706C30.2231 23.3584 29.7587 23.2593 29.4111 23.4846C29.0635 23.71 28.9644 24.1744 29.1897 24.5219L30.4484 23.706ZM30.1724 24.6591L29.5431 25.0671V25.0671L30.1724 24.6591ZM31.323 26.8852L32.0648 26.7748L31.323 26.8852ZM28.7441 31.1315L29.2733 31.663L29.2733 31.663L28.7441 31.1315ZM31.1237 28.4335L31.8157 28.7228L31.1237 28.4335ZM27.6917 31.0091L28.3883 30.7311L27.6917 31.0091ZM27.2792 30.0603L26.6218 30.4214L27.2792 30.0603ZM26.19 28.7358L26.7192 28.2043L26.7021 28.1874L26.6841 28.1716L26.19 28.7358ZM26.9015 29.4887L27.4916 29.0257L26.9015 29.4887ZM28.6709 31.2043L28.1417 30.6729L28.1417 30.6729L28.6709 31.2043ZM25.4904 28.0931L25.2315 27.3892L25.4904 28.0931ZM19.8622 22.4352L20.558 22.7153L19.8622 22.4352ZM18.0782 25.4172C18.3713 25.1244 18.3716 24.6496 18.0789 24.3565C17.7861 24.0634 17.3113 24.0631 17.0182 24.3559L18.0782 25.4172ZM15.8565 26.5762L15.3265 26.0455L15.8565 26.5762ZM14.3185 25.0401L13.7885 24.5095H13.7885L14.3185 25.0401ZM15.0023 25.4172C15.2954 25.1244 15.2957 24.6496 15.003 24.3565C14.7103 24.0634 14.2354 24.0631 13.9423 24.3559L15.0023 25.4172ZM23.6057 30.9868C23.8988 30.694 23.8991 30.2192 23.6063 29.9261C23.3136 29.633 22.8388 29.6327 22.5457 29.9255L23.6057 30.9868ZM21.384 32.1458L21.914 32.6764L21.384 32.1458ZM22.9219 33.6819L23.4519 34.2125L22.9219 33.6819ZM23.6057 34.0589C23.8988 33.7662 23.8991 33.2913 23.6063 32.9983C23.3136 32.7052 22.8388 32.7049 22.5457 32.9976L23.6057 34.0589ZM22.6328 29.1858C22.9257 28.8929 22.9257 28.418 22.6328 28.1251C22.3399 27.8322 21.865 27.8322 21.5721 28.1251L22.6328 29.1858ZM19.4697 30.2275C19.1768 30.5204 19.1768 30.9953 19.4697 31.2882C19.7626 31.5811 20.2374 31.5811 20.5303 31.2882L19.4697 30.2275ZM19.857 26.4134C20.1499 26.1205 20.1499 25.6457 19.857 25.3528C19.5642 25.0599 19.0893 25.0599 18.7964 25.3528L19.857 26.4134ZM16.6795 27.4697C16.3866 27.7626 16.3866 28.2374 16.6795 28.5303C16.9724 28.8232 17.4473 28.8232 17.7401 28.5303L16.6795 27.4697ZM19.4604 29.5815C19.7566 29.2919 19.7618 28.8171 19.4722 28.5209C19.1826 28.2248 18.7078 28.2195 18.4116 28.5091L19.4604 29.5815ZM16.7021 30.1811C16.4059 30.4707 16.4006 30.9455 16.6903 31.2417C16.9799 31.5378 17.4547 31.5431 17.7509 31.2535L16.7021 30.1811ZM31.9861 20.8959L26.8994 25.9612L27.9578 27.0241L33.0445 21.9588L31.9861 20.8959ZM23.1785 25.9612L21.9837 24.7714L20.9253 25.8343L22.1201 27.0241L23.1785 25.9612ZM21.9837 21.0752L27.0705 16.0099L26.012 14.947L20.9253 20.0123L21.9837 21.0752ZM30.1257 14.75H30.6206V13.25H30.1257V14.75ZM33.25 17.3652L33.25 17.858L34.75 17.858L34.75 17.3652L33.25 17.3652ZM30.6206 14.75C31.4382 14.75 31.9763 14.7516 32.3751 14.805C32.7527 14.8555 32.8911 14.9399 32.9759 15.0243L34.0343 13.9614C33.6242 13.5529 33.1169 13.3909 32.5742 13.3182C32.0527 13.2484 31.396 13.25 30.6206 13.25V14.75ZM34.75 17.3652C34.75 16.5933 34.7516 15.9386 34.6814 15.4186C34.6082 14.8766 34.4449 14.3702 34.0343 13.9614L32.9759 15.0243C33.0602 15.1082 33.1443 15.2448 33.1949 15.6193C33.2484 16.0156 33.25 16.5507 33.25 17.3652H34.75ZM21.9837 24.7714C21.4055 24.1956 21.0264 23.8158 20.7826 23.4976C20.5519 23.1966 20.5148 23.0409 20.5148 22.9233H19.0148C19.0148 23.5027 19.2593 23.9759 19.5919 24.4099C19.9113 24.8269 20.3771 25.2884 20.9253 25.8343L21.9837 24.7714ZM22.1201 27.0241C22.6684 27.57 23.1318 28.0338 23.5504 28.3518C23.9864 28.683 24.46 28.9252 25.0389 28.9252V27.4252C24.9179 27.4252 24.76 27.387 24.4578 27.1574C24.1382 26.9145 23.7568 26.537 23.1785 25.9612L22.1201 27.0241ZM33.0445 21.9588C33.7335 21.2727 34.2359 20.7912 34.4995 20.1573L33.1146 19.5812C32.9924 19.875 32.7622 20.123 31.9861 20.8959L33.0445 21.9588ZM33.25 17.858C33.25 18.951 33.2366 19.2879 33.1146 19.5812L34.4995 20.1573C34.7634 19.5231 34.75 18.8283 34.75 17.858H33.25ZM27.0705 16.0099C27.8462 15.2374 28.0958 15.0076 28.3919 14.8855L27.8199 13.4988C27.1844 13.7609 26.7014 14.2605 26.012 14.947L27.0705 16.0099ZM30.1257 13.25C29.1507 13.25 28.455 13.2368 27.8199 13.4988L28.3919 14.8855C28.6883 14.7632 29.0287 14.75 30.1257 14.75V13.25ZM22.5811 26.4292L24.3733 24.6445L23.3149 23.5816L21.5227 25.3663L22.5811 26.4292ZM24.2488 17.5324L23.7014 17.1805L22.8903 18.4423L23.4377 18.7942L24.2488 17.5324ZM23.7014 17.1805C23.162 16.8338 22.722 16.5503 22.3423 16.346C21.9533 16.1366 21.5826 15.9847 21.1698 15.9238L20.9508 17.4077C21.1263 17.4336 21.3244 17.5016 21.6315 17.6669C21.948 17.8372 22.3315 18.0831 22.8903 18.4423L23.7014 17.1805ZM17.3252 19.7653C17.8155 19.2771 18.3393 18.7557 18.8095 18.3272C19.0445 18.1132 19.2571 17.9306 19.4384 17.791C19.6312 17.6425 19.7463 17.5762 19.7925 17.5571L19.2183 16.1713C18.9822 16.2692 18.7391 16.4363 18.5234 16.6024C18.296 16.7775 18.0493 16.9907 17.7993 17.2184C17.2997 17.6736 16.7512 18.22 16.2668 18.7023L17.3252 19.7653ZM21.1698 15.9238C20.5128 15.8268 19.838 15.9145 19.2183 16.1713L19.7925 17.5571C20.1689 17.4011 20.57 17.3515 20.9508 17.4077L21.1698 15.9238ZM16.7456 21.0197L17.0751 21.1501L17.6271 19.7554L17.2976 19.625L16.7456 21.0197ZM18.3439 21.9812L19.1797 22.8135L20.2381 21.7506L19.4023 20.9183L18.3439 21.9812ZM17.0751 21.1501C17.1307 21.1721 17.1521 21.1806 17.1729 21.1892L17.7437 19.802C17.7114 19.7887 17.6791 19.7759 17.6271 19.7554L17.0751 21.1501ZM19.4023 20.9183C19.3627 20.8789 19.3381 20.8543 19.3131 20.8301L18.2692 21.9072C18.2852 21.9228 18.3016 21.9391 18.3439 21.9812L19.4023 20.9183ZM17.1729 21.1892C17.581 21.3571 17.953 21.6009 18.2692 21.9072L19.3131 20.8301C18.8601 20.3911 18.3274 20.0422 17.7437 19.802L17.1729 21.1892ZM16.2668 18.7023C15.5429 19.4232 15.799 20.6451 16.7456 21.0197L17.2976 19.625C17.3518 19.6464 17.37 19.7207 17.3252 19.7653L16.2668 18.7023ZM29.1897 24.5219L29.5431 25.0671L30.8018 24.2511L30.4484 23.706L29.1897 24.5219ZM28.2148 30.6001L28.1417 30.6729L29.2001 31.7358L29.2733 31.663L28.2148 30.6001ZM29.5431 25.0671C29.9039 25.6235 30.1507 26.0053 30.3217 26.3203C30.4875 26.6258 30.5554 26.8222 30.5812 26.9956L32.0648 26.7748C32.0034 26.3623 31.8504 25.9924 31.64 25.6047C31.4347 25.2265 31.1499 24.7881 30.8018 24.2511L29.5431 25.0671ZM29.2733 31.663C29.7576 31.1807 30.3063 30.6344 30.7635 30.1369C30.9922 29.888 31.2064 29.6423 31.3822 29.4158C31.549 29.201 31.7171 28.9586 31.8157 28.7228L30.4317 28.1443C30.4128 28.1897 30.3465 28.3038 30.1974 28.4959C30.0573 28.6764 29.8739 28.8881 29.6589 29.122C29.2287 29.5903 28.7051 30.1119 28.2148 30.6001L29.2733 31.663ZM30.5812 26.9956C30.6374 27.373 30.5878 27.7708 30.4317 28.1443L31.8157 28.7228C32.0741 28.1045 32.1625 27.4308 32.0648 26.7748L30.5812 26.9956ZM26.6841 28.1716L26.2292 27.7732L25.241 28.9017L25.6959 29.3L26.6841 28.1716ZM28.3883 30.7311C28.2023 30.2653 28.0877 29.9745 27.9366 29.6993L26.6218 30.4214C26.7185 30.5975 26.7962 30.7888 26.9951 31.2871L28.3883 30.7311ZM25.6608 29.2672C26.0415 29.6464 26.1873 29.7933 26.3115 29.9517L27.4916 29.0257C27.2978 28.7787 27.0752 28.5588 26.7192 28.2043L25.6608 29.2672ZM27.9366 29.6993C27.8068 29.4631 27.658 29.2378 27.4916 29.0257L26.3115 29.9517C26.4276 30.0996 26.5313 30.2567 26.6218 30.4214L27.9366 29.6993ZM29.289 20.0123C28.9217 20.378 28.325 20.378 27.9578 20.0123L26.8994 21.0752C27.8519 22.0237 29.3949 22.0237 30.3474 21.0752L29.289 20.0123ZM27.9578 20.0123C27.5923 19.6484 27.5923 19.0596 27.9578 18.6957L26.8994 17.6328C25.9451 18.583 25.9451 20.125 26.8994 21.0752L27.9578 20.0123ZM27.9578 18.6957C28.325 18.33 28.9217 18.33 29.289 18.6957L30.3474 17.6328C29.3949 16.6843 27.8519 16.6843 26.8994 17.6328L27.9578 18.6957ZM29.289 18.6957C29.6545 19.0596 29.6545 19.6484 29.289 20.0123L30.3474 21.0752C31.3016 20.125 31.3016 18.583 30.3474 17.6328L29.289 18.6957ZM28.1417 30.6729C28.182 30.6327 28.236 30.6238 28.2734 30.6312C28.311 30.6388 28.3639 30.6699 28.3883 30.7311L26.9951 31.2871C27.356 32.1912 28.5258 32.4073 29.2002 31.7358L28.1417 30.6729ZM26.8994 25.9612C26.4536 26.4051 26.1217 26.735 25.8373 26.9802C25.5518 27.2266 25.3677 27.3391 25.2315 27.3892L25.7494 28.797C26.1379 28.654 26.4842 28.4032 26.8171 28.1161C27.1512 27.8279 27.526 27.4541 27.9578 27.0241L26.8994 25.9612ZM25.2315 27.3892C25.1612 27.415 25.1008 27.4252 25.0389 27.4252V28.9252C25.2864 28.9252 25.5219 28.8806 25.7494 28.797L25.2315 27.3892ZM26.2651 27.8068L26.0204 27.5624L24.9604 28.6237L25.2051 28.8681L26.2651 27.8068ZM20.9253 20.0123C20.5038 20.432 20.1364 20.7973 19.8507 21.1231C19.5662 21.4473 19.3165 21.7825 19.1665 22.1551L20.558 22.7153C20.6135 22.5773 20.7319 22.3931 20.9782 22.1123C21.2232 21.8331 21.5492 21.5079 21.9837 21.0752L20.9253 20.0123ZM19.1665 22.1551C19.0682 22.3991 19.0148 22.6534 19.0148 22.9233H20.5148C20.5148 22.8585 20.5263 22.7938 20.558 22.7153L19.1665 22.1551ZM19.1789 22.8127L19.3322 22.9658L20.3922 21.9045L20.2389 21.7514L19.1789 22.8127ZM17.0182 24.3559L15.3265 26.0455L16.3865 27.1068L18.0782 25.4172L17.0182 24.3559ZM14.8485 25.5708L15.0023 25.4172L13.9423 24.3559L13.7885 24.5095L14.8485 25.5708ZM14.8485 26.0455C14.7172 25.9143 14.7172 25.702 14.8485 25.5708L13.7885 24.5095C13.0705 25.2266 13.0705 26.3897 13.7885 27.1068L14.8485 26.0455ZM15.3265 26.0455C15.1946 26.1772 14.9804 26.1772 14.8485 26.0455L13.7885 27.1068C14.506 27.8235 15.669 27.8235 16.3865 27.1068L15.3265 26.0455ZM22.5457 29.9255L20.8539 31.6151L21.914 32.6764L23.6057 30.9868L22.5457 29.9255ZM23.4519 34.2125L23.6057 34.0589L22.5457 32.9976L22.3919 33.1512L23.4519 34.2125ZM20.8539 34.2125C21.5715 34.9292 22.7344 34.9292 23.4519 34.2125L22.3919 33.1512C22.26 33.2829 22.0458 33.2829 21.914 33.1512L20.8539 34.2125ZM20.8539 31.6151C20.1359 32.3323 20.1359 33.4954 20.8539 34.2125L21.914 33.1512C21.7826 33.02 21.7826 32.8077 21.914 32.6764L20.8539 31.6151ZM21.5721 28.1251L19.4697 30.2275L20.5303 31.2882L22.6328 29.1858L21.5721 28.1251ZM18.7964 25.3528L16.6795 27.4697L17.7401 28.5303L19.857 26.4134L18.7964 25.3528ZM18.4116 28.5091L16.7021 30.1811L17.7509 31.2535L19.4604 29.5815L18.4116 28.5091Z" fill="#4FB58B"/>
</svg>
