<svg width="48" height="48" viewBox="0 0 48 48" fill="none" xmlns="http://www.w3.org/2000/svg">
<rect width="48" height="48" rx="24" fill="#DEF6ED"/>
<path d="M30 20C30 23.3137 27.3137 26 24 26C20.6863 26 18 23.3137 18 20C18 16.6863 20.6863 14 24 14C27.3137 14 30 16.6863 30 20Z" stroke="#4FB58B" stroke-width="1.5"/>
<path d="M18.5 22.189C15.9122 22.855 14 25.2042 14 27.9999C14 31.3136 16.6863 33.9999 20 33.9999C23.3137 33.9999 26 31.3136 26 27.9999C26 27.2452 25.8607 26.5231 25.6063 25.8578" stroke="#4FB58B" stroke-width="1.5"/>
<path d="M24 32.4722C25.0615 33.4222 26.4633 33.9999 28 33.9999C31.3137 33.9999 34 31.3136 34 27.9999C34 25.2042 32.0878 22.855 29.5 22.189" stroke="#4FB58B" stroke-width="1.5"/>
</svg>
