<svg width="48" height="48" viewBox="0 0 48 48" fill="none" xmlns="http://www.w3.org/2000/svg">
<rect width="48" height="48" rx="24" fill="#DEF6ED"/>
<path d="M20.75 31C20.75 30.5858 20.4142 30.25 20 30.25C19.5858 30.25 19.25 30.5858 19.25 31H20.75ZM23.25 24V32H24.75V24H23.25ZM20.75 32V31H19.25V32H20.75ZM24 24.75H33.5238V23.25H24V24.75ZM24.4762 13.25H23.5238V14.75H24.4762V13.25ZM14.4762 24.75H24V23.25H14.4762V24.75ZM13.25 23.5238C13.25 24.201 13.799 24.75 14.4762 24.75V23.25C14.6274 23.25 14.75 23.3726 14.75 23.5238H13.25ZM34.75 23.5238C34.75 17.8497 30.1503 13.25 24.4762 13.25V14.75C29.3218 14.75 33.25 18.6782 33.25 23.5238H34.75ZM33.5238 24.75C34.201 24.75 34.75 24.201 34.75 23.5238H33.25C33.25 23.3726 33.3726 23.25 33.5238 23.25V24.75ZM22 33.25C21.3096 33.25 20.75 32.6904 20.75 32H19.25C19.25 33.5188 20.4812 34.75 22 34.75V33.25ZM23.5238 13.25C17.8497 13.25 13.25 17.8497 13.25 23.5238H14.75C14.75 18.6782 18.6782 14.75 23.5238 14.75V13.25ZM23.25 32C23.25 32.6904 22.6904 33.25 22 33.25V34.75C23.5188 34.75 24.75 33.5188 24.75 32H23.25Z" fill="#4FB58B"/>
<path d="M28.9145 24C28.6354 21.2887 27.5544 14 24.0002 14C20.4461 14 19.3651 21.2887 19.0859 24" stroke="#4FB58B" stroke-width="1.5"/>
</svg>
